<svg width="24" height="25" viewBox="0 0 24 25" fill="none" xmlns="http://www.w3.org/2000/svg">
    <path d="M22.5 21.5C22.5 21.5 24 21.5 24 20C24 18.5 22.5 14 16.5 14C10.5 14 9 18.5 9 20C9 21.5 10.5 21.5 10.5 21.5H22.5ZM10.533 20L10.5 19.994C10.5015 19.598 10.7505 18.449 11.64 17.414C12.468 16.4435 13.923 15.5 16.5 15.5C19.0755 15.5 20.5305 16.445 21.36 17.414C22.2495 18.449 22.497 19.5995 22.5 19.994L22.488 19.997L22.467 20H10.533ZM16.5 11C17.2956 11 18.0587 10.6839 18.6213 10.1213C19.1839 9.55871 19.5 8.79565 19.5 8C19.5 7.20435 19.1839 6.44129 18.6213 5.87868C18.0587 5.31607 17.2956 5 16.5 5C15.7044 5 14.9413 5.31607 14.3787 5.87868C13.8161 6.44129 13.5 7.20435 13.5 8C13.5 8.79565 13.8161 9.55871 14.3787 10.1213C14.9413 10.6839 15.7044 11 16.5 11ZM21 8C21 8.59095 20.8836 9.17611 20.6575 9.72208C20.4313 10.268 20.0998 10.7641 19.682 11.182C19.2641 11.5998 18.768 11.9313 18.2221 12.1575C17.6761 12.3836 17.0909 12.5 16.5 12.5C15.9091 12.5 15.3239 12.3836 14.7779 12.1575C14.232 11.9313 13.7359 11.5998 13.318 11.182C12.9002 10.7641 12.5687 10.268 12.3425 9.72208C12.1164 9.17611 12 8.59095 12 8C12 6.80653 12.4741 5.66193 13.318 4.81802C14.1619 3.97411 15.3065 3.5 16.5 3.5C17.6935 3.5 18.8381 3.97411 19.682 4.81802C20.5259 5.66193 21 6.80653 21 8ZM10.404 14.42C9.80364 14.2324 9.18526 14.1082 8.559 14.0495C8.20706 14.0152 7.85361 13.9987 7.5 14C1.5 14 0 18.5 0 20C0 21 0.5 21.5 1.5 21.5H7.824C7.60174 21.0317 7.49084 20.5183 7.5 20C7.5 18.485 8.0655 16.937 9.135 15.644C9.4995 15.203 9.924 14.7905 10.404 14.42ZM7.38 15.5C6.49279 16.8342 6.01327 18.3978 6 20H1.5C1.5 19.61 1.746 18.455 2.64 17.414C3.4575 16.46 4.878 15.53 7.38 15.5015V15.5ZM2.25 8.75C2.25 7.55653 2.72411 6.41193 3.56802 5.56802C4.41193 4.72411 5.55653 4.25 6.75 4.25C7.94347 4.25 9.08807 4.72411 9.93198 5.56802C10.7759 6.41193 11.25 7.55653 11.25 8.75C11.25 9.94347 10.7759 11.0881 9.93198 11.932C9.08807 12.7759 7.94347 13.25 6.75 13.25C5.55653 13.25 4.41193 12.7759 3.56802 11.932C2.72411 11.0881 2.25 9.94347 2.25 8.75ZM6.75 5.75C5.95435 5.75 5.19129 6.06607 4.62868 6.62868C4.06607 7.19129 3.75 7.95435 3.75 8.75C3.75 9.54565 4.06607 10.3087 4.62868 10.8713C5.19129 11.4339 5.95435 11.75 6.75 11.75C7.54565 11.75 8.30871 11.4339 8.87132 10.8713C9.43393 10.3087 9.75 9.54565 9.75 8.75C9.75 7.95435 9.43393 7.19129 8.87132 6.62868C8.30871 6.06607 7.54565 5.75 6.75 5.75Z" fill="white"/>
</svg>