<svg width="24" height="25" viewBox="0 0 24 25" fill="none" xmlns="http://www.w3.org/2000/svg">
    <g clip-path="url(#clip0_2115_620)">
        <path d="M18.75 14C20.1424 14 21.4777 14.5531 22.4623 15.5377C23.4469 16.5223 24 17.8576 24 19.25C24 20.6424 23.4469 21.9777 22.4623 22.9623C21.4777 23.9469 20.1424 24.5 18.75 24.5C17.3576 24.5 16.0223 23.9469 15.0377 22.9623C14.0531 21.9777 13.5 20.6424 13.5 19.25C13.5 17.8576 14.0531 16.5223 15.0377 15.5377C16.0223 14.5531 17.3576 14 18.75 14ZM19.281 22.781L21.531 20.531C21.6718 20.3902 21.7509 20.1992 21.7509 20C21.7509 19.8008 21.6718 19.6098 21.531 19.469C21.3902 19.3282 21.1992 19.2491 21 19.2491C20.8008 19.2491 20.6098 19.3282 20.469 19.469L19.5 20.4395V16.25C19.5 16.0511 19.421 15.8603 19.2803 15.7197C19.1397 15.579 18.9489 15.5 18.75 15.5C18.5511 15.5 18.3603 15.579 18.2197 15.7197C18.079 15.8603 18 16.0511 18 16.25V20.4395L17.031 19.469C16.8902 19.3282 16.6992 19.2491 16.5 19.2491C16.3008 19.2491 16.1098 19.3282 15.969 19.469C15.8282 19.6098 15.7491 19.8008 15.7491 20C15.7491 20.1992 15.8282 20.3902 15.969 20.531L18.219 22.781C18.2887 22.8508 18.3714 22.9063 18.4626 22.9441C18.5537 22.9819 18.6513 23.0013 18.75 23.0013C18.8487 23.0013 18.9463 22.9819 19.0374 22.9441C19.1286 22.9063 19.2113 22.8508 19.281 22.781ZM16.5 8C16.5 9.19347 16.0259 10.3381 15.182 11.182C14.3381 12.0259 13.1935 12.5 12 12.5C10.8065 12.5 9.66193 12.0259 8.81802 11.182C7.97411 10.3381 7.5 9.19347 7.5 8C7.5 6.80653 7.97411 5.66193 8.81802 4.81802C9.66193 3.97411 10.8065 3.5 12 3.5C13.1935 3.5 14.3381 3.97411 15.182 4.81802C16.0259 5.66193 16.5 6.80653 16.5 8ZM12 11C12.7956 11 13.5587 10.6839 14.1213 10.1213C14.6839 9.55871 15 8.79565 15 8C15 7.20435 14.6839 6.44129 14.1213 5.87868C13.5587 5.31607 12.7956 5 12 5C11.2044 5 10.4413 5.31607 9.87868 5.87868C9.31607 6.44129 9 7.20435 9 8C9 8.79565 9.31607 9.55871 9.87868 10.1213C10.4413 10.6839 11.2044 11 12 11Z" fill="white"/>
        <path d="M12.384 21.5C12.2122 21.0128 12.097 20.5075 12.0405 19.994H4.5C4.5015 19.625 4.731 18.515 5.748 17.498C6.726 16.52 8.5665 15.5 12 15.5C12.39 15.5 12.76 15.5125 13.11 15.5375C13.449 15.026 13.854 14.5625 14.316 14.1605C13.616 14.0555 12.844 14.002 12 14C4.5 14 3 18.5 3 20C3 21.5 4.5 21.5 4.5 21.5H12.384Z" fill="white"/>
    </g>
    <defs>
        <clipPath id="clip0_2115_620">
            <rect width="24" height="24" fill="white" transform="translate(0 0.5)"/>
        </clipPath>
    </defs>
</svg>
