<svg width="24" height="25" viewBox="0 0 24 25" fill="none" xmlns="http://www.w3.org/2000/svg">
    <path d="M4 19.5V5.5C4 4.96957 4.21071 4.46086 4.58579 4.08579C4.96086 3.71071 5.46957 3.5 6 3.5H19.4C19.5591 3.5 19.7117 3.56321 19.8243 3.67574C19.9368 3.78826 20 3.94087 20 4.1V17.214" stroke="white" stroke-linecap="round"/>
    <path d="M8 3.5V11.5L10.5 9.9L13 11.5V3.5" stroke="white" stroke-linecap="round" stroke-linejoin="round"/>
    <path d="M6 17.5H20M6 21.5H20" stroke="white" stroke-linecap="round"/>
    <path d="M6 21.5C5.46957 21.5 4.96086 21.2893 4.58579 20.9142C4.21071 20.5391 4 20.0304 4 19.5C4 18.9696 4.21071 18.4609 4.58579 18.0858C4.96086 17.7107 5.46957 17.5 6 17.5" stroke="white" stroke-linecap="round" stroke-linejoin="round"/>
</svg>